<svg width="102" height="62" viewBox="0 0 102 62" fill="none" xmlns="http://www.w3.org/2000/svg">
<path d="M93.2819 61.0135C92.6349 61.0135 91.9719 60.8191 91.3917 60.4366C89.8331 59.3751 89.4155 57.2491 90.4451 55.7191C93.5864 51.0505 95.2522 45.5456 95.2263 39.9186C95.2489 34.2902 93.5835 28.7842 90.4451 24.1118C89.9426 23.3649 89.7568 22.4493 89.9283 21.5656C90.0997 20.682 90.6146 19.9023 91.3599 19.3975C92.1068 18.897 93.0211 18.7116 93.9039 18.8817C94.7868 19.0519 95.5668 19.5637 96.0742 20.306C99.9551 26.1188 102.019 32.9548 102.003 39.9441C102.003 46.9535 99.9629 53.7747 96.0742 59.5696C95.4972 60.5991 94.4167 61.0964 93.3361 61.0964L93.2819 61.0135ZM83.5537 55.5215C82.8776 55.5172 82.2186 55.3083 81.6635 54.9222C81.2942 54.6802 80.977 54.3669 80.7305 54.0006C80.4839 53.6344 80.313 53.2226 80.2278 52.7894C80.1426 52.3562 80.1448 51.9103 80.2342 51.478C80.3237 51.0456 80.4986 50.6355 80.7487 50.2716C82.8249 47.2286 83.9307 43.628 83.9202 39.9441C83.9066 36.2649 82.8029 32.6722 80.7487 29.6198C80.4986 29.2546 80.3238 28.8432 80.2344 28.4097C80.1449 27.9762 80.1428 27.5292 80.2279 27.0948C80.3131 26.6604 80.4839 26.2474 80.7303 25.8797C80.9768 25.512 81.294 25.1971 81.6635 24.9533C82.0349 24.7075 82.4512 24.5374 82.8885 24.4529C83.3258 24.3683 83.7755 24.371 84.2117 24.4608C84.648 24.5505 85.0623 24.7255 85.4307 24.9758C85.7991 25.2261 86.1145 25.5467 86.3587 25.9191C89.1807 30.072 90.696 34.9742 90.7096 39.9951C90.7233 45.0272 89.2058 49.9443 86.3587 54.0935C86.0609 54.5667 85.6466 54.9556 85.1554 55.2229C84.6643 55.4903 84.1128 55.6271 83.5537 55.6203V55.5215ZM67.7022 25.1063C66.3731 11.5276 54.8853 0.884521 40.9241 0.884521C35.3125 0.893354 29.8434 2.65239 25.2789 5.91653C20.7143 9.18068 17.2817 13.7874 15.4591 19.0947C6.76043 20.3729 0.00292969 27.8954 0.00292969 36.9415C0.00292969 46.9025 8.12149 55.021 18.1175 55.021H64.4669C72.8182 55.021 79.6235 48.2508 79.6235 39.9155C79.6216 36.4603 78.4388 33.1095 76.2711 30.4189C74.1034 27.7282 71.0811 25.8594 67.7054 25.1223L67.7022 25.1063ZM64.4637 48.2635H18.1143C11.8891 48.2635 6.77637 43.2018 6.77637 36.9575C6.77929 35.4718 7.07493 34.0012 7.64637 32.6298C8.21782 31.2584 9.05389 30.0131 10.1068 28.9649C11.1597 27.9167 12.4088 27.0863 13.7828 26.521C15.1567 25.9558 16.6286 25.6668 18.1143 25.6705C21.1361 25.6705 23.9921 26.8818 26.1309 28.9887C26.4438 29.3044 26.8162 29.555 27.2265 29.7261C27.6368 29.8971 28.077 29.9851 28.5215 29.9851C28.966 29.9851 29.4062 29.8971 29.8165 29.7261C30.2268 29.555 30.5992 29.3044 30.9121 28.9887C32.1903 27.7137 32.1903 25.5366 30.9121 24.2075C28.6036 21.9111 25.7203 20.2774 22.5641 19.4772C24.1595 15.9636 26.7331 12.9839 29.9771 10.8941C33.2211 8.80436 36.9983 7.69304 40.8571 7.69302C51.9496 7.69302 61.0117 16.7423 61.0117 27.8285C61.0117 30.0055 60.6802 32.1125 59.9821 34.1365C59.4179 35.9311 60.3646 37.8372 62.1592 38.4875C62.4838 38.6029 62.8251 38.6643 63.1696 38.6691C64.5817 38.6691 65.9109 37.7735 66.3571 36.3773C66.8029 35.0486 67.1262 33.6818 67.3229 32.2941C69.1394 33.0032 70.6518 34.3235 71.5995 36.0277C72.5472 37.7319 72.8709 39.7133 72.5148 41.6305C72.1588 43.5477 71.1453 45.2807 69.649 46.531C68.1526 47.7813 66.2671 48.4706 64.3171 48.4803L64.4637 48.2635Z" fill="white"/>
</svg>
