<svg width="48" height="48" viewBox="0 0 48 48" fill="none" xmlns="http://www.w3.org/2000/svg">
<g clip-path="url(#clip0_212_47)">
<path d="M44 48H4C1.794 48 0 46.206 0 44V14C0 11.794 1.794 10 4 10H24C24.552 10 25 10.448 25 11C25 11.552 24.552 12 24 12H4C2.897 12 2 12.897 2 14V44C2 45.103 2.897 46 4 46H44C45.103 46 46 45.103 46 44V14C46 12.897 45.103 12 44 12C43.448 12 43 11.552 43 11C43 10.448 43.448 10 44 10C46.206 10 48 11.794 48 14V44C48 46.206 46.206 48 44 48Z" fill="white"/>
<path d="M44 44H10V14H20C20.552 14 21 14.448 21 15C21 15.552 20.552 16 20 16H12V42H42V16H40C39.448 16 39 15.552 39 15C39 14.448 39.448 14 40 14H44V44Z" fill="white"/>
<path d="M8 42H0V16H8V42ZM2 40H6V18H2V40Z" fill="white"/>
<path d="M17.4404 27.5599L20.0794 19.2629L38.0714 1.27194C39.5824 -0.240061 42.2174 -0.240061 43.7284 1.27194C45.2884 2.83194 45.2884 5.36894 43.7284 6.92794L25.7374 24.9199L17.4404 27.5599ZM21.8384 20.3329L20.5184 24.4809L24.6664 23.1609L42.3144 5.51494C43.0944 4.73494 43.0944 3.46694 42.3144 2.68694C41.5584 1.93094 40.2414 1.93094 39.4854 2.68694L21.8384 20.3329Z" fill="white"/>
<path d="M7 24H1V26H7V24Z" fill="white"/>
<path d="M7 32H1V34H7V32Z" fill="white"/>
<path d="M41.6056 8.63595C41.3496 8.63595 41.0936 8.53795 40.8986 8.34295L36.6556 4.09995C36.2646 3.70895 36.2646 3.07695 36.6556 2.68595C37.0466 2.29495 37.6786 2.29495 38.0696 2.68595L42.3126 6.92895C42.7036 7.31995 42.7036 7.95195 42.3126 8.34295C42.1176 8.53895 41.8616 8.63595 41.6056 8.63595Z" fill="white"/>
<path d="M35.9503 14.2929C35.6943 14.2929 35.4383 14.1949 35.2433 13.9999L31.0003 9.75693C30.6093 9.36593 30.6093 8.73393 31.0003 8.34293C31.3913 7.95193 32.0233 7.95193 32.4143 8.34293L36.6573 12.5859C37.0483 12.9769 37.0483 13.6089 36.6573 13.9999C36.4613 14.1949 36.2063 14.2929 35.9503 14.2929Z" fill="white"/>
<path d="M25.2022 25.041C24.9462 25.041 24.6902 24.943 24.4952 24.748L20.2522 20.505C19.8612 20.114 19.8612 19.482 20.2522 19.091C20.6432 18.7 21.2752 18.7 21.6662 19.091L25.9092 23.334C26.3002 23.725 26.3002 24.357 25.9092 24.748C25.7132 24.943 25.4582 25.041 25.2022 25.041Z" fill="white"/>
<path d="M17.0003 28.9999C16.7443 28.9999 16.4882 28.9019 16.2932 28.7069C15.9022 28.3159 15.9022 27.6839 16.2932 27.2929L18.2723 25.3139C18.6633 24.9229 19.2953 24.9229 19.6863 25.3139C20.0773 25.7049 20.0773 26.3369 19.6863 26.7279L17.7073 28.7069C17.5123 28.9019 17.2563 28.9999 17.0003 28.9999Z" fill="white"/>
</g>
<defs>
<clipPath id="clip0_212_47">
<rect width="48" height="48" fill="white"/>
</clipPath>
</defs>
</svg>
