<svg width="69" height="61" viewBox="0 0 69 61" fill="none" xmlns="http://www.w3.org/2000/svg">
<path d="M55.7422 6.625C55.7422 4.93425 56.4138 3.31274 57.6094 2.11719C58.8049 0.92165 60.4264 0.25 62.1172 0.25C63.8079 0.25 65.4295 0.92165 66.625 2.11719C67.8205 3.31274 68.4922 4.93425 68.4922 6.625V53.375C68.4922 55.0658 67.8205 56.6873 66.625 57.8828C65.4295 59.0784 63.8079 59.75 62.1172 59.75C60.4264 59.75 58.8049 59.0784 57.6094 57.8828C56.4138 56.6873 55.7422 55.0658 55.7422 53.375V52.4655C46.5537 47.1912 36.6597 44.6328 26.3662 43.6128L28.0874 55.1387C28.203 55.7528 28.1818 56.3848 28.0253 56.9897C27.8688 57.5946 27.5808 58.1575 27.1818 58.6384C26.7829 59.1194 26.2829 59.5064 25.7173 59.772C25.1517 60.0376 24.5345 60.1752 23.9097 60.175H21.5807C20.7546 60.1749 19.9464 59.9341 19.255 59.482C18.5636 59.0299 18.019 58.386 17.6877 57.6293L9.82519 42.7967L8.96669 42.784C6.71574 42.7617 4.5642 41.8535 2.97803 40.2562C1.39187 38.6589 0.498783 36.501 0.492188 34.25L0.492188 25.75C0.499773 23.4987 1.39136 21.3405 2.97488 19.7403C4.5584 18.1401 6.70713 17.2259 8.95819 17.1947C12.4773 17.1468 15.9954 17.0405 19.5109 16.876C32.4437 16.2215 45.6399 13.2678 55.7422 7.53025V6.625ZM59.9922 6.625V53.375C59.9922 53.9386 60.2161 54.4791 60.6146 54.8776C61.0131 55.2761 61.5536 55.5 62.1172 55.5C62.6808 55.5 63.2213 55.2761 63.6198 54.8776C64.0183 54.4791 64.2422 53.9386 64.2422 53.375V6.625C64.2422 6.06141 64.0183 5.52091 63.6198 5.1224C63.2213 4.72388 62.6808 4.5 62.1172 4.5C61.5536 4.5 61.0131 4.72388 60.6146 5.1224C60.2161 5.52091 59.9922 6.06141 59.9922 6.625ZM55.7422 12.3625C45.7802 17.4837 33.6039 20.191 21.7422 21.0028V38.993C22.5072 39.0355 23.2679 39.0865 24.0244 39.146C34.9384 39.9493 45.6697 42.308 55.7422 47.6163V12.3625ZM17.4922 38.7762V21.2237C14.671 21.327 11.8489 21.4007 9.02619 21.4447C7.89047 21.4581 6.80535 21.9166 6.00421 22.7217C5.20306 23.5269 4.7499 24.6142 4.74219 25.75V34.25C4.74219 36.5875 6.64619 38.5085 9.01769 38.5382C11.8436 38.5714 14.6688 38.6507 17.4922 38.7762ZM14.6999 42.92L21.5382 55.8272L21.5807 55.9292H23.9097L23.9012 55.8698L22.0184 43.2643C19.5805 43.1172 17.1408 43.001 14.6999 42.9157V42.92Z" fill="white"/>
</svg>
