<svg width="802" height="567" viewBox="0 0 802 567" fill="none" xmlns="http://www.w3.org/2000/svg">
<path d="M96.2968 544.979C90.7387 537.436 31.783 512.722 3 501.308L4.98504 458.134C15.2411 431.997 42.1052 377.243 67.5137 367.318C92.9222 357.393 160.48 318.188 191.082 299.827L201.504 295.857C196.707 292.714 190.985 285.075 189 283.884C186.519 282.396 189.097 276.006 181.653 267.074C175.698 259.928 162.63 230.351 156.84 216.455C158.329 209.508 160.413 194.719 156.84 191.146C152.374 186.68 147.411 176.754 143.938 172.288C141.159 168.715 141.126 160.543 141.456 156.904C143.111 152.272 145.923 142.215 143.938 139.039C141.456 135.069 139.471 136.557 138.975 130.106C138.479 123.655 143.938 112.241 141.456 107.278C139.471 103.308 140.629 97.353 141.456 94.8717C143.111 90.4054 145.923 80.3809 143.938 76.0139C141.456 70.555 142.449 55.6672 143.938 47.7271C145.129 41.375 153.036 30.5234 156.84 25.8917C161.803 23.4104 172.423 18.15 175.202 16.9589C178.676 15.4701 178.676 4.05619 181.653 3.06367C184.631 2.07115 192.075 12.9889 194.06 14.4776C196.045 15.9664 220.362 14.4776 225.324 11.5001C230.287 8.52254 246.167 16.9589 264.032 16.9589C281.898 16.9589 292.319 37.8018 296.289 41.7719C302.921 45.1894 318.193 76.6813 325 92L337.5 135.5L347.404 139.039C347.404 139.039 353.019 175.431 351.374 193.627L347.404 197.101C345.584 205.207 342.739 225.289 345.915 240.772C349.091 256.255 365.435 261.119 373.209 261.615L574.195 253.675L589.579 250.697L505.214 195.612C492.973 189.326 467.896 177.548 465.514 180.725C462.536 184.695 434.746 192.139 429.287 191.146C423.828 190.153 409.933 187.672 403.978 188.665C398.022 189.657 389.586 196.605 386.112 195.612C382.638 194.62 379.165 185.191 380.653 176.754C382.142 168.318 401.496 170.799 403.978 168.318C411.485 166.212 423.6 160 412 152C375 124.5 305.8 68.4 325 64C379.4 56.8 596.506 144.11 698.259 188.665C762.972 216.852 792.383 261.946 799 280.969C796.519 294.202 788.937 331.616 760.292 343.994C720.095 361.363 651.611 364.837 589.579 376.747C539.953 386.275 522.914 397.921 522.584 404.538L514.147 512.226L298.274 564.333C233.264 561.025 101.855 552.522 96.2968 544.979Z" fill="black" stroke="black" stroke-width="5"/>
<path d="M200.443 148.077C200.443 160.005 195.046 173.002 186.726 183.028C178.393 193.069 167.351 199.878 156.237 199.878C144.914 199.878 137.242 195.902 132.338 189.125C127.371 182.261 125.089 172.313 125.089 160.113C125.089 141.981 140.2 123.786 162.766 123.786C168.628 123.786 173.937 123.856 178.623 124.336C183.314 124.817 187.28 125.7 190.485 127.27C193.655 128.823 196.104 131.056 197.785 134.318C199.481 137.612 200.443 142.051 200.443 148.077Z" fill="white" stroke="black" stroke-width="3"/>
<path d="M215.493 133.176C216.177 144.12 222.457 154.326 231.65 161.626C240.852 168.934 252.838 173.218 264.681 172.417C276.609 171.609 284.441 167.33 289.179 160.692C293.96 153.994 295.775 144.638 295.085 133.333C294.063 116.575 278.863 99.5974 255.239 101.153C242.478 103.534 232.51 107.468 225.759 112.84C219.06 118.171 215.506 124.927 215.493 133.176Z" fill="white" stroke="black" stroke-width="3"/>
<path d="M147.532 124.578L255.269 100.506" stroke="black" stroke-width="3"/>
<path d="M345.077 128.6L294.359 120.789L296.071 126.495L345.126 132.038L345.077 128.6Z" fill="white"/>
<path d="M198.771 134.311L214.501 130.628M294.359 120.789L345.077 128.6L345.126 132.038L296.071 126.495L294.359 120.789Z" stroke="black" stroke-width="3"/>
<rect x="1.25124" y="0.876739" width="2.18008" height="5.8319" transform="matrix(0.983291 -0.182042 0.164596 0.986361 119.877 165.567)" fill="white" stroke="black" stroke-width="2.18008"/>
</svg>
