<svg width="58" height="58" viewBox="0 0 58 58" fill="none" xmlns="http://www.w3.org/2000/svg">
<path d="M3.26745e-06 28.9934C0.00145777 22.6354 2.0923 16.4541 5.95075 11.4008C9.8092 6.34747 15.2214 2.7022 21.3544 1.02599C27.4875 -0.650218 34.0014 -0.26447 39.8937 2.12387C45.786 4.51221 50.7302 8.77077 53.9652 14.2442C57.2003 19.7175 58.547 26.1024 57.7981 32.4161C57.0491 38.7298 54.246 44.6224 49.8202 49.187C45.3944 53.7517 39.5912 56.7353 33.3036 57.6789C27.016 58.6224 20.5927 57.4735 15.022 54.4089L3.7468 57.8425C3.24389 57.9957 2.70879 58.0093 2.19874 57.8819C1.68869 57.7544 1.22289 57.4907 0.851139 57.119C0.479392 56.7472 0.215693 56.2814 0.0882484 55.7714C-0.0391965 55.2613 -0.0255935 54.7262 0.127603 54.2233L3.5612 42.9307C1.22244 38.6578 -0.0023088 33.8645 3.26745e-06 28.9934ZM17.4 26.0934C17.4 26.8625 17.7055 27.6001 18.2494 28.144C18.7932 28.6878 19.5309 28.9934 20.3 28.9934H37.7C38.4691 28.9934 39.2067 28.6878 39.7506 28.144C40.2944 27.6001 40.6 26.8625 40.6 26.0934C40.6 25.3242 40.2944 24.5866 39.7506 24.0427C39.2067 23.4989 38.4691 23.1934 37.7 23.1934H20.3C19.5309 23.1934 18.7932 23.4989 18.2494 24.0427C17.7055 24.5866 17.4 25.3242 17.4 26.0934ZM20.3 34.7933C19.5309 34.7933 18.7932 35.0989 18.2494 35.6427C17.7055 36.1866 17.4 36.9242 17.4 37.6933C17.4 38.4625 17.7055 39.2001 18.2494 39.7439C18.7932 40.2878 19.5309 40.5933 20.3 40.5933H31.9C32.6691 40.5933 33.4067 40.2878 33.9506 39.7439C34.4944 39.2001 34.8 38.4625 34.8 37.6933C34.8 36.9242 34.4944 36.1866 33.9506 35.6427C33.4067 35.0989 32.6691 34.7933 31.9 34.7933H20.3Z" fill="#2CBDEA"/>
</svg>
