<svg xmlns="http://www.w3.org/2000/svg" xmlns:xlink="http://www.w3.org/1999/xlink" aria-hidden="true" role="img" class="iconify iconify--logos" width="31.88" height="32" preserveAspectRatio="xMidYMid meet" viewBox="0 0 256 257">
<path fill-rule="evenodd" clip-rule="evenodd" d="M2.87898 52.0039C5.73517 52.6359 8.89097 53.3343 8.89097 56.0818C8.89097 58.1456 21.8169 59.1599 28.5 59.5L52.5463 52.3488L53.4136 41.2784C53.4476 40.5981 55.1991 39.401 60.3007 38.4215C62.4904 38.0011 64.7583 37.6829 66.9597 37.374C71.1696 36.7834 75.1368 36.2269 77.8502 35.0544C80.7949 33.782 81.5743 29.9358 81.8294 28.5754C81.1492 26.6198 78.1256 21.9842 71.4732 19.0865C63.1576 15.4643 44.2307 7.914 33.0072 6.89368C32.191 6.06043 30.4769 4.31228 30.1504 3.98578C30.0684 3.90378 29.9596 3.75176 29.8232 3.56117C29.2808 2.80315 28.3019 1.43499 26.8343 1.43499C25.8999 1.43499 25.0184 1.21051 24.3106 1.03027C23.6271 0.856234 23.1057 0.723451 22.8551 0.873816C22.3449 1.17991 19.8452 1.33296 19.6411 1.17991C19.5786 1.13306 19.4636 0.995377 19.3252 0.829791C19.0116 0.454455 18.5781 -0.0642527 18.3657 0.00654528C18.2175 0.0559379 18.1411 0.356391 18.0611 0.670619C17.9759 1.0055 17.8867 1.35603 17.7025 1.43499C17.4168 1.55743 16.3251 2.0982 15.8149 2.35328C15.4238 2.82943 14.6109 3.94497 14.4885 4.59798C14.3354 5.41423 14.2334 6.9447 14.4885 7.50588C14.6926 7.95482 14.4035 8.98534 14.2334 9.44448C14.1484 9.69956 14.0294 10.3117 14.2334 10.7199C14.3796 11.0122 14.2578 11.5222 14.1367 12.0292C14.0464 12.4071 13.9566 12.7834 13.9783 13.0666C14.0114 13.4968 14.1089 13.5836 14.243 13.7028C14.3156 13.7674 14.3989 13.8415 14.4885 13.9849C14.6926 14.3114 14.4035 15.3453 14.2334 15.8215C14.1994 16.1956 14.2028 17.0356 14.4885 17.403C14.6294 17.5842 14.7942 17.8528 14.9703 18.1399C15.2404 18.5801 15.537 19.0636 15.8149 19.3415C16.1822 19.7089 15.968 21.2291 15.8149 21.9434C16.4101 23.3718 17.7535 26.4123 18.3657 27.147C18.8611 27.7415 18.7365 28.2718 18.6562 28.6134C18.6124 28.7995 18.5819 28.9296 18.6718 28.9835C18.8759 29.106 19.9132 29.7828 20.4063 30.1059L19.335 30.514C16.189 32.4016 9.24407 36.4319 6.63206 37.4522C4.02005 38.4725 1.25839 44.1012 0.204063 46.7881L0 51.2264C0.800749 51.544 1.81924 51.7694 2.87898 52.0039ZM34.9461 12.1483V13.8318L35.5072 14.1379L35.9664 16.0255V19.5966L35.5072 20.1068C34.861 22.3175 34.4971 26.698 38.2111 26.5348C41.925 26.3715 53.3288 25.9566 58.5664 25.7696L60.2499 25.4635C56.7128 22.9977 49.2815 18.0866 47.8531 18.1682C46.5879 19.3109 43.9589 19.3246 42.8025 19.1885C42.2413 19.0525 41.0068 18.862 40.5578 19.1885C40.429 19.2822 40.3083 19.3732 40.1968 19.4571C39.8227 19.7391 39.5534 19.942 39.4355 19.9027C39.2824 19.8517 38.3131 18.7804 38.9253 17.556C39.6191 17.0662 40.4048 17.0799 40.7109 17.1479C40.9829 17.1819 41.4557 17.0765 41.17 16.3826C40.8843 15.6888 40.3708 14.461 40.1497 13.9339C40.1327 13.8318 39.966 13.5972 39.4355 13.4747C38.9049 13.3523 36.2215 12.5394 34.9461 12.1483Z" fill="black"/>
<path d="M19.5 14.9565C19.5 15.7526 19.1312 16.6535 18.5398 17.3596C17.9447 18.07 17.1975 18.5 16.5 18.5C15.7333 18.5 15.2714 18.2402 14.9807 17.8422C14.6695 17.4162 14.5 16.7572 14.5 15.8696C14.5 14.6999 15.4922 13.5 17 13.5C17.4493 13.5 17.8381 13.5055 18.1755 13.5398C18.5141 13.5741 18.7672 13.6347 18.9549 13.7258C19.1309 13.8111 19.2535 13.9248 19.34 14.0913C19.432 14.2681 19.5 14.5376 19.5 14.9565Z" fill="#636363" stroke="#636363"/>
<path d="M22.7805 13.4123C22.8399 14.246 23.3508 15.0594 24.1491 15.6613C24.9498 16.2651 25.9909 16.6159 27.0092 16.5505C28.0566 16.4832 28.6804 16.1332 29.0442 15.6493C29.4193 15.1504 29.5864 14.4192 29.5247 13.4604C29.4433 12.1937 28.215 10.8201 26.19 10.9374C25.031 11.1448 24.1646 11.4796 23.5979 11.9077C23.0498 12.3219 22.7852 12.817 22.7805 13.4123Z" fill="#636363" stroke="#636363"/>
<path d="M15.9997 13.5L26 11" stroke="#636363" stroke-width="0.5"/>
<path d="M34.57 13.0159L29.8148 12.3207L29.9753 12.8286L34.5745 13.322L34.57 13.0159Z" fill="#636363"/>
<path d="M19.5 14L22.3275 13.1965M29.8148 12.3207L34.57 13.0159L34.5745 13.322L29.9753 12.8286L29.8148 12.3207Z" stroke="#636363" stroke-width="0.5"/>
<rect x="13.5859" y="16.368" width="0.204063" height="0.510158" transform="rotate(-9.96887 13.5859 16.368)" fill="#636363" stroke="#636363" stroke-width="0.204063"/>
</svg>